<?xml version="1.0" encoding="UTF-8" standalone="no"?>
<svg width="40px" height="40px" viewBox="0 0 40 40" version="1.1" xmlns="http://www.w3.org/2000/svg" xmlns:xlink="http://www.w3.org/1999/xlink" xmlns:sketch="http://www.bohemiancoding.com/sketch/ns">
    <!-- Generator: Sketch 3.3.2 (12043) - http://www.bohemiancoding.com/sketch -->
    <title>Rectangle 430 Copy 8</title>
    <desc>Created with Sketch.</desc>
    <defs></defs>
    <g id="v1-Final" stroke="none" stroke-width="1" fill="none" fill-rule="evenodd" sketch:type="MSPage">
        <g id="Group" sketch:type="MSLayerGroup" transform="translate(11.000000, 9.000000)">
            <rect id="Rectangle-621-Copy" stroke="#000000" stroke-width="2" sketch:type="MSShapeGroup" x="11" y="6" width="7" height="16" rx="1"></rect>
            <rect id="Rectangle-26-Copy-33" fill="#000000" sketch:type="MSShapeGroup" x="5" y="3" width="1" height="1"></rect>
            <rect id="Rectangle-26-Copy-31" fill="#000000" sketch:type="MSShapeGroup" x="3" y="3" width="1" height="1"></rect>
            <rect id="Rectangle-26-Copy-34" fill="#000000" sketch:type="MSShapeGroup" x="5" y="5" width="1" height="1"></rect>
            <rect id="Rectangle-26-Copy-32" fill="#000000" sketch:type="MSShapeGroup" x="3" y="5" width="1" height="1"></rect>
            <rect id="Rectangle-26-Copy-37" fill="#000000" sketch:type="MSShapeGroup" x="5" y="7" width="1" height="1"></rect>
            <rect id="Rectangle-26-Copy-36" fill="#000000" sketch:type="MSShapeGroup" x="3" y="7" width="1" height="1"></rect>
            <rect id="Rectangle-26-Copy-40" fill="#000000" sketch:type="MSShapeGroup" x="5" y="9" width="1" height="1"></rect>
            <rect id="Rectangle-26-Copy-39" fill="#000000" sketch:type="MSShapeGroup" x="3" y="9" width="1" height="1"></rect>
            <rect id="Rectangle-26-Copy-43" fill="#000000" sketch:type="MSShapeGroup" x="5" y="11" width="1" height="1"></rect>
            <rect id="Rectangle-26-Copy-42" fill="#000000" sketch:type="MSShapeGroup" x="3" y="11" width="1" height="1"></rect>
            <rect id="Rectangle-26-Copy-45" fill="#000000" sketch:type="MSShapeGroup" x="5" y="13" width="1" height="1"></rect>
            <rect id="Rectangle-26-Copy-44" fill="#000000" sketch:type="MSShapeGroup" x="3" y="13" width="1" height="1"></rect>
            <rect id="Rectangle-26-Copy-47" fill="#000000" sketch:type="MSShapeGroup" x="5" y="15" width="1" height="1"></rect>
            <rect id="Rectangle-26-Copy-54" fill="#000000" sketch:type="MSShapeGroup" x="7" y="3" width="1" height="1"></rect>
            <rect id="Rectangle-26-Copy-48" fill="#000000" sketch:type="MSShapeGroup" x="7" y="5" width="1" height="1"></rect>
            <rect id="Rectangle-26-Copy-49" fill="#000000" sketch:type="MSShapeGroup" x="7" y="7" width="1" height="1"></rect>
            <rect id="Rectangle-26-Copy-50" fill="#000000" sketch:type="MSShapeGroup" x="7" y="9" width="1" height="1"></rect>
            <rect id="Rectangle-26-Copy-51" fill="#000000" sketch:type="MSShapeGroup" x="7" y="11" width="1" height="1"></rect>
            <rect id="Rectangle-26-Copy-52" fill="#000000" sketch:type="MSShapeGroup" x="7" y="13" width="1" height="1"></rect>
            <rect id="Rectangle-26-Copy-53" fill="#000000" sketch:type="MSShapeGroup" x="7" y="15" width="1" height="1"></rect>
            <rect id="Rectangle-26-Copy-46" fill="#000000" sketch:type="MSShapeGroup" x="3" y="15" width="1" height="1"></rect>
            <rect id="Rectangle-621-Copy-2" stroke="#000000" stroke-width="2" sketch:type="MSShapeGroup" x="0" y="0" width="11" height="22" rx="1"></rect>
            <rect id="Rectangle-26-Copy-41" fill="#000000" sketch:type="MSShapeGroup" x="13" y="9" width="1" height="1"></rect>
            <rect id="Rectangle-26-Copy-58" fill="#000000" sketch:type="MSShapeGroup" x="13" y="11" width="1" height="1"></rect>
            <rect id="Rectangle-26-Copy-59" fill="#000000" sketch:type="MSShapeGroup" x="13" y="13" width="1" height="1"></rect>
            <rect id="Rectangle-26-Copy-60" fill="#000000" sketch:type="MSShapeGroup" x="13" y="15" width="1" height="1"></rect>
            <rect id="Rectangle-26-Copy-66" fill="#000000" sketch:type="MSShapeGroup" x="15" y="9" width="1" height="1"></rect>
            <rect id="Rectangle-26-Copy-62" fill="#000000" sketch:type="MSShapeGroup" x="15" y="11" width="1" height="1"></rect>
            <rect id="Rectangle-26-Copy-63" fill="#000000" sketch:type="MSShapeGroup" x="15" y="13" width="1" height="1"></rect>
            <rect id="Rectangle-26-Copy-64" fill="#000000" sketch:type="MSShapeGroup" x="15" y="15" width="1" height="1"></rect>
            <rect id="Rectangle-26-Copy-6" stroke="#000000" sketch:type="MSShapeGroup" x="4" y="18" width="3" height="4"></rect>
        </g>
    </g>
</svg>